<svg xmlns="http://www.w3.org/2000/svg" viewBox="0 0 566.16 375.32"><defs><style>.cls-1{fill:#91a8f6;}.cls-2{fill:#93c7ea;}.cls-3{fill:#ff8383;}.cls-4{fill:#d15e79;}.cls-5{fill:#1b2a67;}.cls-6{fill:#86294e;}.cls-7{fill:#ffd2d4;}.cls-8{fill:#201028;}.cls-14,.cls-9{fill:#445eea;}.cls-10{fill:#e0eef7;}.cls-11{fill:#6eacce;}.cls-12{fill:#fff;}.cls-13,.cls-15{fill:none;}.cls-13{stroke:#1b2a67;stroke-miterlimit:10;stroke-width:0.83px;}.cls-13,.cls-14,.cls-15{stroke-linecap:round;}.cls-14,.cls-15{stroke:#445eea;stroke-linejoin:round;}.cls-14{stroke-width:2.76px;}.cls-15{stroke-width:0.66px;}</style></defs><title>Asset 11000</title><g id="Layer_2" data-name="Layer 2"><g id="OBJECTS"><path className="cls-1" d="M436.69,186.78a3.86,3.86,0,1,1-3.86-3.86A3.86,3.86,0,0,1,436.69,186.78Zm-1.91,0a1.95,1.95,0,1,0-1.94,1.95A1.95,1.95,0,0,0,434.78,186.78Z"/><path className="cls-1" d="M501.53,45.55H479.69a1,1,0,1,0,0,1.91h21.85a1,1,0,1,0,0-1.91Z"/><path className="cls-1" d="M472.73,45.54h-4.27a1,1,0,1,0,0,1.91h4.27a1,1,0,1,0,0-1.91Z"/><path className="cls-1" d="M491.27,53.16a1,1,0,0,1-1,1h-2.73a1,1,0,0,1,0-1.91h2.73A1,1,0,0,1,491.27,53.16Zm-7.51,0a1,1,0,0,1-1,1H478a1,1,0,0,1,0-1.91h4.78A1,1,0,0,1,483.76,53.16Zm-9.56,0a1,1,0,0,1-1,1h-4.78a1,1,0,0,1,0-1.91h4.78A1,1,0,0,1,474.2,53.16Z"/><path className="cls-1" d="M147.08,109.44a1,1,0,0,0-1,1v2.22a1,1,0,0,0,1.91,0V110.4A1,1,0,0,0,147.08,109.44Z"/><path className="cls-1" d="M144.58,107.22h-2.22a1,1,0,0,0,0,1.91h2.22a1,1,0,0,0,0-1.91Z"/><path className="cls-1" d="M147.08,102.62a1,1,0,0,0-1,1v2.22a1,1,0,0,0,1.91,0v-2.22A1,1,0,0,0,147.08,102.62Z"/><path className="cls-1" d="M151.8,107.06h-2.22a1,1,0,0,0,0,1.91h2.22a1,1,0,1,0,0-1.91Z"/><path className="cls-1" d="M387.48,47.48a1,1,0,0,0-1,1v2.22a1,1,0,0,0,1.91,0V48.43A1,1,0,0,0,387.48,47.48Z"/><path className="cls-1" d="M385,45.25h-2.22a1,1,0,1,0,0,1.91H385a1,1,0,0,0,0-1.91Z"/><path className="cls-1" d="M387.48,40.66a1,1,0,0,0-1,1v2.22a1,1,0,0,0,1.91,0V41.61A1,1,0,0,0,387.48,40.66Z"/><path className="cls-1" d="M392.2,45.1H390A1,1,0,0,0,390,47h2.22a1,1,0,0,0,0-1.91Z"/><path className="cls-1" d="M298.38,0H276.53a1,1,0,0,0,0,1.91h21.85a1,1,0,1,0,0-1.91Z"/><path className="cls-1" d="M269.58,0h-4.27a1,1,0,1,0,0,1.91h4.27a1,1,0,1,0,0-1.91Z"/><path className="cls-1" d="M288.11,7.62a1,1,0,0,1-1,1h-2.73a1,1,0,1,1,0-1.91h2.73A1,1,0,0,1,288.11,7.62Zm-7.51,0a1,1,0,0,1-1,1h-4.78a1,1,0,1,1,0-1.91h4.78A1,1,0,0,1,280.6,7.62Zm-9.56,0a1,1,0,0,1-1,1h-4.78a1,1,0,1,1,0-1.91h4.78A1,1,0,0,1,271,7.62Z"/><circle className="cls-1" cx="536.58" cy="100.13" r="3.38"/><path className="cls-1" d="M90.78,265.49h21.85a1,1,0,0,0,0-1.91H90.78a1,1,0,1,0,0,1.91Z"/><path className="cls-1" d="M79.56,265.5h4.27a1,1,0,1,0,0-1.91H79.56a1,1,0,1,0,0,1.91Z"/><path className="cls-1" d="M503.59,281s1.3,9.31-9.57,9.09c0,0,9.34.1,9.1,8.83,0,0,.84-6.87,9.41-8.41C512.53,290.55,505.28,292.22,503.59,281Z"/><path className="cls-1" d="M555.51,149.72s1.3,9.31-9.57,9.09c0,0,9.34.1,9.1,8.83,0,0,.84-6.87,9.41-8.41C564.44,159.24,557.2,160.9,555.51,149.72Z"/><path className="cls-1" d="M210.6,23.68s1.3,9.31-9.57,9.09c0,0,9.34.1,9.1,8.83,0,0,.84-6.87,9.41-8.41C219.54,33.2,212.3,34.86,210.6,23.68Z"/><path className="cls-1" d="M117,49.39s1.3,9.31-9.57,9.09c0,0,9.34.1,9.1,8.83,0,0,.84-6.87,9.41-8.41C125.93,58.91,118.68,60.57,117,49.39Z"/><path className="cls-1" d="M173.73,9.6s.45,3.24-3.34,3.17c0,0,3.26,0,3.17,3.08a3.7,3.7,0,0,1,3.28-2.93S174.32,13.5,173.73,9.6Z"/><path className="cls-1" d="M344,121.47s.45,3.24-3.34,3.17c0,0,3.26,0,3.17,3.08a3.7,3.7,0,0,1,3.28-2.93S344.61,125.37,344,121.47Z"/><path className="cls-1" d="M28.5,176.93s.45,3.24-3.34,3.17c0,0,3.26,0,3.17,3.08a3.7,3.7,0,0,1,3.28-2.93S29.09,180.83,28.5,176.93Z"/><path className="cls-1" d="M311.64,264.41s.45,3.24-3.34,3.17c0,0,3.26,0,3.17,3.08a3.7,3.7,0,0,1,3.28-2.93S312.23,268.31,311.64,264.41Z"/><path className="cls-1" d="M182.8,212.11H161.59a4.92,4.92,0,0,1-.16-9.84,7.62,7.62,0,0,1,14-4,5.52,5.52,0,0,1,6.13,4h1.24a4.92,4.92,0,1,1,0,9.84Zm-21.21-8.39a3.47,3.47,0,1,0,0,6.93H182.8a3.47,3.47,0,1,0,0-6.93h-2.45l-.1-.61a4.07,4.07,0,0,0-5-3.35l-.54.13-.27-.48a6.16,6.16,0,0,0-11.54,3c0,.18,0,.36,0,.53l.07.79Z"/><path className="cls-1" d="M561.24,32.59H540a4.92,4.92,0,0,1-.16-9.84,7.62,7.62,0,0,1,14-4,5.53,5.53,0,0,1,6.13,4h1.24a4.92,4.92,0,1,1,0,9.84ZM540,24.2a3.47,3.47,0,0,0,0,6.93h21.21a3.47,3.47,0,1,0,0-6.93h-2.45l-.1-.61a4.07,4.07,0,0,0-5-3.35l-.54.13-.27-.48a6.16,6.16,0,0,0-11.54,3c0,.18,0,.36,0,.53l.07.79Z"/><path className="cls-1" d="M232.77,86.75H211.56a4.92,4.92,0,0,1-.16-9.84,7.62,7.62,0,0,1,14-4,5.53,5.53,0,0,1,6.13,4h1.24a4.92,4.92,0,1,1,0,9.84Zm-21.21-8.39a3.47,3.47,0,0,0,0,6.93h21.21a3.47,3.47,0,1,0,0-6.93h-2.45l-.1-.61a4.07,4.07,0,0,0-5-3.35l-.54.13L224.4,74a6.16,6.16,0,0,0-11.54,3c0,.18,0,.36,0,.53l.07.79Z"/><path className="cls-2" d="M299.21,358.69h0A17.14,17.14,0,0,1,278,346.86l-13.6-48.08a17.14,17.14,0,0,1,11.83-21.16h0a17.14,17.14,0,0,1,21.16,11.83L311,337.53A17.14,17.14,0,0,1,299.21,358.69Z"/><path className="cls-2" d="M279.8,358.29h0a17.14,17.14,0,0,1-.24-24.24l35-35.67a17.14,17.14,0,0,1,24.24-.24h0a17.14,17.14,0,0,1,.24,24.24l-35,35.67A17.14,17.14,0,0,1,279.8,358.29Z"/><circle className="cls-3" cx="336.91" cy="298.11" r="15.02" transform="translate(-108.75 236.74) rotate(-33.66)"/><path className="cls-3" d="M326.85,295.94h0a3.91,3.91,0,0,1-4.77-2.81L320.75,288a3.91,3.91,0,0,1,2.81-4.77h0a3.91,3.91,0,0,1,4.77,2.81l1.33,5.17A3.91,3.91,0,0,1,326.85,295.94Z"/><path className="cls-3" d="M341.92,278.14l-5.32,13.47a4.06,4.06,0,0,1-5.27,2.29h0a4.06,4.06,0,0,1-2.29-5.27l5.32-13.47a4.06,4.06,0,0,1,5.27-2.29h0A4.06,4.06,0,0,1,341.92,278.14Z"/><path className="cls-3" d="M351.3,281l-6.43,13a4.06,4.06,0,0,1-5.44,1.84h0a4.06,4.06,0,0,1-1.84-5.44l6.43-13a4.06,4.06,0,0,1,5.44-1.84h0A4.06,4.06,0,0,1,351.3,281Z"/><path className="cls-3" d="M358.28,288.2l-9,11.37a4.06,4.06,0,0,1-5.71.67h0a4.06,4.06,0,0,1-.67-5.71l9-11.37a4.06,4.06,0,0,1,5.71-.67h0A4.06,4.06,0,0,1,358.28,288.2Z"/><path className="cls-3" d="M249.92,222.57h20a0,0,0,0,1,0,0v31a7.1,7.1,0,0,1-7.1,7.1H257a7.1,7.1,0,0,1-7.1-7.1v-31a0,0,0,0,1,0,0Z" transform="translate(9.7 -10.03) rotate(2.25)"/><path className="cls-4" d="M270.69,221.89l-20-.79-.31,7.86c-.3,7.7,6,14.46,13.66,13.9a13.81,13.81,0,0,0,5.91-1.82Z"/><path className="cls-5" d="M280.74,191.23c5.17,9.4-.81,21.47-13.37,27s-26.92,2.31-32.09-7.09.81-21.47,13.37-27S275.57,181.83,280.74,191.23Z"/><path className="cls-5" d="M294.61,194.06c3.43,7.38-3.24,16.11-14.89,19.51s-23.88.17-27.31-7.21,3.24-16.11,14.89-19.51S291.18,186.69,294.61,194.06Z"/><path className="cls-5" d="M275.5,175.65c6.9,4.31,6.09,15.26-1.82,24.47S253.77,213.3,246.87,209s-6.09-15.26,1.82-24.47S268.6,171.34,275.5,175.65Z"/><path className="cls-3" d="M282.28,216.92c2,11-3.81,21.31-12.9,22.93h0c-9.09,1.62-18.07-6-20-17.05l-1.55-8.69c-2-11,3.81-21.31,12.9-22.93h0c9.1-1.62,18.07,6,20,17.05Z"/><path className="cls-5" d="M262.85,189.87c-5-4.55-13.79-2.35-19.56,4.92s-6.37,16.86-1.34,21.41,13.79,2.35,19.56-4.92S267.88,194.43,262.85,189.87Z"/><path className="cls-6" d="M266.17,214.47a.91.91,0,0,1-.52-1.66,5.92,5.92,0,0,1,6.1-.26.92.92,0,0,1-.92,1.58,4.06,4.06,0,0,0-4.14.18A.91.91,0,0,1,266.17,214.47Z"/><path className="cls-6" d="M282,214.47a.9.9,0,0,1-.52-.16h0a4.06,4.06,0,0,0-4.14-.18.92.92,0,0,1-.92-1.58,5.89,5.89,0,0,1,6.1.26.91.91,0,0,1-.52,1.66Z"/><circle className="cls-6" cx="269.34" cy="216.89" r="0.95" transform="translate(42.03 477.5) rotate(-87.75)"/><circle className="cls-6" cx="278.49" cy="217.25" r="0.95" transform="translate(50.46 486.99) rotate(-87.75)"/><path className="cls-7" d="M281.67,223.93h-.3a7.39,7.39,0,1,1,.3,0Zm0-13.74a6.24,6.24,0,0,0-.24,12.47A6.33,6.33,0,0,0,285.9,221a6.24,6.24,0,0,0-4-10.81Z"/><path className="cls-7" d="M265.55,224.22h-.34a8.43,8.43,0,0,1-5.39-14.61,8.43,8.43,0,0,1,11.91.47,8.43,8.43,0,0,1-6.18,14.15Zm0-15.43a7,7,0,0,0-7,6.73h0a7,7,0,0,0,6.72,7.27,7,7,0,1,0,.55-14Z"/><path className="cls-7" d="M272.51,217.11l3.1.12a.65.65,0,0,0,.68-.63h0a.65.65,0,0,0-.63-.68l-3.1-.12a.65.65,0,0,0-.68.63h0A.65.65,0,0,0,272.51,217.11Z"/><path className="cls-6" d="M278.72,221.5c-.09,1.09-1.35,2.08-2.82,2.22s-2.59-.64-2.5-1.73,1.35-2.08,2.82-2.22S278.81,220.41,278.72,221.5Z"/><path className="cls-6" d="M278.1,227.36a4.78,4.78,0,0,1-5.14,4.38c-2.74-.11-4.32-2.82-4.22-5.35A23.7,23.7,0,0,1,278.1,227.36Z"/><path className="cls-7" d="M273.36,228.94c-2.16-.25-3.5-1-3.63-2.62a23.57,23.57,0,0,1,7.9.88C277.26,228.67,275.48,229.19,273.36,228.94Z"/><path className="cls-8" d="M267,232.75h-5.38a8.73,8.73,0,0,1-5.87-2.26l-3.37-3a.65.65,0,0,1,.88-1l3.37,3a7.43,7.43,0,0,0,5,1.92H267a.65.65,0,0,1,0,1.31Z"/><path className="cls-7" d="M267,233.4h-2.18a1.31,1.31,0,0,1,0-2.61H267a1.31,1.31,0,0,1,0,2.61Z"/><circle className="cls-9" cx="249.43" cy="220.68" r="10.94" transform="translate(19.12 461.25) rotate(-87.75)"/><ellipse className="cls-1" cx="247.83" cy="220.62" rx="9.34" ry="8.54" transform="translate(17.65 459.59) rotate(-87.75)"/><ellipse className="cls-10" cx="246.23" cy="220.55" rx="3.78" ry="2.94" transform="translate(16.17 457.93) rotate(-87.75)"/><path className="cls-2" d="M275.86,373.41l-52.33,1.47a15.81,15.81,0,0,1-15.17-16.42l3.31-87.57a10.88,10.88,0,0,1,7.57-9.94l39-12.42,31.18,14.95a10.88,10.88,0,0,1,6.17,10.24l-3.32,84.52A15.81,15.81,0,0,1,275.86,373.41Z"/><path className="cls-11" d="M295.6,273.71c.18,9.13.07,18.25-.08,27.37s-.44,18.23-.77,27.34-.78,18.22-1.38,27.32a24.33,24.33,0,0,1-1.08,7,15.87,15.87,0,0,1-16.44,10.69,15.87,15.87,0,0,0,11.77-5.52,14.84,14.84,0,0,0,3.1-5.68,22.6,22.6,0,0,0,.64-6.54c.12-9.12.45-18.23.77-27.34s.78-18.22,1.38-27.32S294.71,282.8,295.6,273.71Z"/><path className="cls-2" d="M248.75,243.59h20.73a3.79,3.79,0,0,1,3.79,3.79V264.2a0,0,0,0,1,0,0H245a0,0,0,0,1,0,0V247.38a3.79,3.79,0,0,1,3.79-3.79Z" transform="translate(16.88 -16.15) rotate(3.69)"/><path className="cls-2" d="M188.43,347.74h0a17.14,17.14,0,0,1-9.26-22.41l19.16-46.14a17.14,17.14,0,0,1,22.41-9.26h0A17.14,17.14,0,0,1,230,292.34l-19.16,46.14A17.14,17.14,0,0,1,188.43,347.74Z"/><path className="cls-11" d="M220.75,269.93a16.86,16.86,0,0,1,7.92,5.56,17.71,17.71,0,0,1,3.6,9.26c.45,3.36-.63,6.93-1.86,9.82l-3.62,8.9c-2.48,5.91-5,11.81-7.65,17.64l-4,8.74c-1.43,2.88-2.78,5.78-4.28,8.63,1-3.07,2.07-6.08,3.09-9.12l3.35-9c2.24-6,4.66-11.94,7.09-17.87l3.75-8.85a25.06,25.06,0,0,0,1.62-4.31,16.7,16.7,0,0,0,.52-4.46A17.42,17.42,0,0,0,220.75,269.93Z"/><path className="cls-6" d="M268.23,323.55l-8.73-.56a6,6,0,0,1-5.55-6.32l.25-3.94a6,6,0,0,1,6.32-5.55l8.73.56Zm-8-12.46a2,2,0,0,0-2.15,1.89l-.25,3.94a2,2,0,0,0,1.89,2.15l4.82.31.51-8Z"/><path className="cls-4" d="M276.71,336.11l-7.55-.49a8.32,8.32,0,0,1-7.77-8.84L263,302.51c.17-2.71,24.33-1.15,24.16,1.56l-1.57,24.27A8.32,8.32,0,0,1,276.71,336.11Z"/><ellipse className="cls-6" cx="274.81" cy="304.09" rx="1.77" ry="9.92" transform="translate(-46.34 558.75) rotate(-86.31)"/><path className="cls-2" d="M178.93,332.32h0a17.14,17.14,0,0,1,17.41-16.87l50,.79a17.14,17.14,0,0,1,16.87,17.41h0a17.14,17.14,0,0,1-17.41,16.87l-50-.79A17.14,17.14,0,0,1,178.93,332.32Z"/><path className="cls-11" d="M196.34,315.45c6.42-.44,12.83-.59,19.24-.7s12.82-.07,19.22,0l9.61.22c3.14,0,6.85.45,9.75,2.2a17.74,17.74,0,0,1,7.06,7,16.86,16.86,0,0,1,1.95,9.48A17.42,17.42,0,0,0,253.26,319a16.79,16.79,0,0,0-4.29-1.3,25.13,25.13,0,0,0-4.6-.22l-9.61-.08c-6.41-.13-12.81-.27-19.21-.61S202.74,316.09,196.34,315.45Z"/><circle className="cls-3" cx="265.46" cy="329.9" r="15.02" transform="translate(-29.42 26.01) rotate(-5.32)"/><path className="cls-3" d="M257.69,322.71h0a3.59,3.59,0,0,1-2.22-4.57l1.6-4.63a3.59,3.59,0,0,1,4.57-2.22h0a3.59,3.59,0,0,1,2.22,4.57l-1.6,4.63A3.59,3.59,0,0,1,257.69,322.71Z"/><path className="cls-3" d="M286.45,324.67l-13.33,1.24a3.76,3.76,0,0,1-4.09-3.39h0a3.76,3.76,0,0,1,3.39-4.09l13.33-1.24a3.76,3.76,0,0,1,4.09,3.39h0A3.76,3.76,0,0,1,286.45,324.67Z"/><path className="cls-3" d="M283.63,336.93l-13.36-.86a3.76,3.76,0,0,1-3.51-4h0a3.76,3.76,0,0,1,4-3.51l13.36.86a3.76,3.76,0,0,1,3.51,4h0A3.76,3.76,0,0,1,283.63,336.93Z"/><path className="cls-9" d="M419.5,291.38a1.57,1.57,0,0,1-1.11-2.67l15-15a1.57,1.57,0,0,1,2.21,2.21l-15,15A1.56,1.56,0,0,1,419.5,291.38Z"/><path className="cls-9" d="M408.85,282.2a1.57,1.57,0,0,1-1.57-1.57V259.48a1.57,1.57,0,0,1,3.13,0v21.15A1.57,1.57,0,0,1,408.85,282.2Z"/><path className="cls-9" d="M449.83,302H428.67a1.57,1.57,0,1,1,0-3.13h21.16a1.57,1.57,0,1,1,0,3.13Z"/><path className="cls-11" d="M261.93,367.83H391.37c3.61,0,4.72-2.93,4.72-6.54H255.39A6.54,6.54,0,0,0,261.93,367.83Z"/><path className="cls-11" d="M254.42,361.29H300.3c0,3.61-3.32,6.54-7.43,6.54H254.23C250,367.77,250.19,361.29,254.42,361.29Z"/><path className="cls-10" d="M303.17,363.2h92.93a5.75,5.75,0,0,0,5.64-4.67l12.53-53.74a5.75,5.75,0,0,0-5.64-6.82H315.69a5.75,5.75,0,0,0-5.65,4.68l-12.52,53.74A5.75,5.75,0,0,0,303.17,363.2Z"/><path className="cls-11" d="M310,302.64a5.73,5.73,0,0,1,2.29-3.59,5.72,5.72,0,0,1,2.29,5.73l-12.52,53.74a5.73,5.73,0,0,1-2.29,3.59,5.73,5.73,0,0,1-2.3-5.73Z"/><path className="cls-12" d="M368.49,337.43H353.25a5.66,5.66,0,0,1-5.66-5.66h0a5.66,5.66,0,0,1,5.66-5.66h15.24a5.66,5.66,0,0,1,5.66,5.66h0A5.66,5.66,0,0,1,368.49,337.43Z"/><path className="cls-11" d="M268.28,363.1H263.7a1.63,1.63,0,0,1-1.63-1.63h0a1.63,1.63,0,0,1,1.63-1.63h4.57a1.63,1.63,0,0,1,1.63,1.63h0A1.63,1.63,0,0,1,268.28,363.1Z"/><path className="cls-11" d="M277.2,363.1h-4.57a1.63,1.63,0,0,1-1.63-1.63h0a1.63,1.63,0,0,1,1.63-1.63h4.57a1.63,1.63,0,0,1,1.63,1.63h0A1.63,1.63,0,0,1,277.2,363.1Z"/><path className="cls-11" d="M286.13,363.1h-4.57a1.63,1.63,0,0,1-1.63-1.63h0a1.63,1.63,0,0,1,1.63-1.63h4.57a1.63,1.63,0,0,1,1.63,1.63h0A1.63,1.63,0,0,1,286.13,363.1Z"/><path className="cls-11" d="M295.05,363.1h-4.57a1.63,1.63,0,0,1-1.63-1.63h0a1.63,1.63,0,0,1,1.63-1.63h4.57a1.63,1.63,0,0,1,1.63,1.63h0A1.63,1.63,0,0,1,295.05,363.1Z"/><path className="cls-5" d="M465.37,375.32h-391a3.92,3.92,0,0,1-3.92-3.92h0a3.92,3.92,0,0,1,3.92-3.92h391a3.92,3.92,0,0,1,3.92,3.92h0A3.92,3.92,0,0,1,465.37,375.32Z"/><path className="cls-13" d="M132.9,343.38s-2.88-21.62-8.09-26.94"/><path className="cls-7" d="M125.65,303.58c1.39,4.61,1.11,8.77-.64,9.3s-4.28-2.78-5.68-7.39l0-.14c-1.18-4.11,5-6,6.31-1.91Z"/><path className="cls-7" d="M133.92,313.88c-4.61,1.39-8.77,1.11-9.3-.64s2.78-4.28,7.39-5.68l.14,0c4.1-1.18,6,5,1.91,6.31Z"/><path className="cls-7" d="M118.15,318.64c4.61-1.39,7.92-3.93,7.39-5.68s-4.69-2-9.3-.64l-.14,0c-4.07,1.29-2.2,7.49,1.91,6.31Z"/><path className="cls-7" d="M125.91,323.88c1.3-4.64.92-8.79-.83-9.28s-4.23,2.87-5.52,7.51l0,.14c-1.09,4.13,5.14,5.87,6.35,1.77Z"/><path className="cls-7" d="M130.36,322.54c-3.65-3.14-5.64-6.81-4.45-8.19s5.11.05,8.75,3.19l.11.09c3.2,2.83-1,7.74-4.3,5Z"/><circle className="cls-4" cx="125.03" cy="314.14" r="2.25" transform="translate(-85.51 49.58) rotate(-16.81)"/><ellipse className="cls-9" cx="121.17" cy="333.59" rx="5.22" ry="13.8" transform="translate(-215.85 222.32) rotate(-51.77)"/><ellipse className="cls-9" cx="141.36" cy="332.3" rx="15.7" ry="5.94" transform="translate(-189.16 186.84) rotate(-43.2)"/><polygon className="cls-5" points="140.78 368.78 120.1 368.78 116.48 342.77 144.4 342.77 140.78 368.78"/><rect className="cls-5" x="113.93" y="339.77" width="33.01" height="9.67" rx="1.47" ry="1.47"/><polygon className="cls-9" points="193.52 148.34 203.77 159.34 281.93 126.74 193.52 148.34"/><polygon className="cls-1" points="197.17 112.06 189.45 123.7 194.67 135.11 182.96 137.1 172.61 159.82 284.43 125.98 197.17 112.06"/><polygon className="cls-9" points="194.67 135.11 189.45 123.7 250.01 126.53 194.67 135.11"/><path className="cls-9" d="M188.78,248l-2.58,0a1.57,1.57,0,0,1-1.55-1.58,1.53,1.53,0,0,1,1.58-1.55c4.06,0,8.09,0,12.51-.2h.07a1.57,1.57,0,0,1,.07,3.13C195.33,247.9,192,248,188.78,248Zm-15.14-.62h-.14c-4.32-.37-8.56-.92-12.62-1.65a1.57,1.57,0,0,1-1.27-1.82,1.59,1.59,0,0,1,1.82-1.27c4,.71,8.12,1.25,12.34,1.61a1.57,1.57,0,0,1-.13,3.13Zm-24.73-4.52a1.52,1.52,0,0,1-.46-.07,90.72,90.72,0,0,1-11.95-4.59,1.57,1.57,0,1,1,1.33-2.84,88.1,88.1,0,0,0,11.53,4.43,1.57,1.57,0,0,1-.46,3.07Zm-22.7-10.69a1.56,1.56,0,0,1-.87-.26A83.06,83.06,0,0,1,115.25,224a1.57,1.57,0,0,1,2.12-2.31,80.2,80.2,0,0,0,9.7,7.62,1.57,1.57,0,0,1-.87,2.87Zm-18.47-17a1.57,1.57,0,0,1-1.23-.59A83.58,83.58,0,0,1,99.31,204,1.57,1.57,0,0,1,102,202.4,80.48,80.48,0,0,0,109,212.62a1.57,1.57,0,0,1-1.23,2.54Zm-12.41-21.8a1.57,1.57,0,0,1-1.47-1A77,77,0,0,1,90.33,180a1.57,1.57,0,0,1,3.08-.6,73.75,73.75,0,0,0,3.38,11.85,1.57,1.57,0,0,1-1.47,2.12Zm-5-24.59a1.57,1.57,0,0,1-1.56-1.47c-.16-2.56-.24-5.26-.24-8v-.64q0-2,.07-4.09A1.57,1.57,0,0,1,90.15,153h.05a1.57,1.57,0,0,1,1.52,1.62q-.07,2-.07,4v.63c0,2.69.08,5.32.24,7.81a1.56,1.56,0,0,1-1.46,1.66Z"/><path className="cls-9" d="M103.5,143.91q-3.59,0-7.06-.09a1.57,1.57,0,0,1,0-3.13h0q6.07.15,12.52,0a1.48,1.48,0,0,1,1.6,1.54,1.56,1.56,0,0,1-1.54,1.6Q106.26,143.91,103.5,143.91Zm18.15-.53a1.57,1.57,0,0,1-.08-3.13c4.05-.23,8.26-.53,12.51-.91a1.57,1.57,0,1,1,.28,3.12c-4.28.38-8.53.69-12.62.91Zm-37.75-.2h-.12c-4.36-.34-8.61-.8-12.62-1.38A1.57,1.57,0,0,1,69.83,140a1.59,1.59,0,0,1,1.77-1.33c3.94.56,8.12,1,12.42,1.35a1.57,1.57,0,0,1-.12,3.13Zm62.84-2a1.57,1.57,0,0,1-.18-3.12q6.11-.72,12.45-1.62a1.57,1.57,0,1,1,.44,3.1q-6.39.91-12.53,1.63ZM59,139.58a1.58,1.58,0,0,1-.34,0c-3-.68-6-1.45-8.78-2.28q-1.78-.53-3.51-1.1a1.57,1.57,0,0,1,1-3q1.68.56,3.42,1.07c2.73.81,5.61,1.56,8.57,2.22a1.57,1.57,0,0,1-.34,3.1Zm-23.81-8.05a1.56,1.56,0,0,1-.68-.16,76.38,76.38,0,0,1-11.06-6.52,1.57,1.57,0,1,1,1.82-2.55,73.3,73.3,0,0,0,10.61,6.25,1.57,1.57,0,0,1-.68,3Zm54-1.4a1.57,1.57,0,0,1-1.57-1.57V128c0-4-.16-8-.47-11.94a1.57,1.57,0,1,1,3.13-.24c.32,4,.48,8.15.48,12.18v.56A1.57,1.57,0,0,1,89.14,130.12ZM14.91,116.83a1.56,1.56,0,0,1-1.16-.51,54.57,54.57,0,0,1-7.53-10.51A1.57,1.57,0,0,1,9,104.3a51.29,51.29,0,0,0,7.1,9.91,1.57,1.57,0,0,1-1.16,2.62ZM87.12,105a1.57,1.57,0,0,1-1.54-1.3,106.88,106.88,0,0,0-2.77-12.11,1.57,1.57,0,0,1,3-.88,110.21,110.21,0,0,1,2.85,12.47A1.57,1.57,0,0,1,87.39,105ZM2.89,95a1.57,1.57,0,0,1-1.51-1.15Q1.09,92.77.84,91.7A30.34,30.34,0,0,1,0,84.75a26.64,26.64,0,0,1,.3-4,1.57,1.57,0,0,1,3.1.47,23.76,23.76,0,0,0-.27,3.55A27.21,27.21,0,0,0,3.89,91c.16.68.33,1.35.52,2a1.56,1.56,0,0,1-1.09,1.93A1.59,1.59,0,0,1,2.89,95Zm77-14.06A1.57,1.57,0,0,1,78.44,80,53.15,53.15,0,0,0,72,69.66a1.57,1.57,0,0,1,2.44-2,56.45,56.45,0,0,1,6.81,11,1.57,1.57,0,0,1-1.41,2.25ZM6.78,71.09a1.55,1.55,0,0,1-.95-.32,1.57,1.57,0,0,1-.3-2.2,35.52,35.52,0,0,1,9.81-8.67A1.57,1.57,0,1,1,17,62.58a32.38,32.38,0,0,0-9,7.9A1.56,1.56,0,0,1,6.78,71.09ZM64,61.77a1.56,1.56,0,0,1-.86-.26,35.4,35.4,0,0,0-11-4.76,1.57,1.57,0,1,1,.75-3,38.62,38.62,0,0,1,12,5.18A1.57,1.57,0,0,1,64,61.77Zm-36.31-4a1.57,1.57,0,0,1-.44-3.07,59.09,59.09,0,0,1,12.32-2.23l.47,0A1.67,1.67,0,0,1,41.63,54a1.57,1.57,0,0,1-1.54,1.6h-.34a55.82,55.82,0,0,0-11.63,2.1A1.59,1.59,0,0,1,27.68,57.78Z"/><path className="cls-9" d="M404.83,68.45h83.78a19,19,0,0,1,19,19v43.21a19,19,0,0,1-19,19H433.83L414.12,167V149.59h-9.29a19,19,0,0,1-19-19V87.41A19,19,0,0,1,404.83,68.45Z"/><path className="cls-1" d="M417,95.2h59.41a2.38,2.38,0,0,0,0-4.75H417a2.38,2.38,0,0,0,0,4.75Z"/><path className="cls-1" d="M417,111h59.41a2.38,2.38,0,0,0,0-4.75H417a2.38,2.38,0,0,0,0,4.75Z"/><path className="cls-1" d="M467.71,126.88h8.71a2.38,2.38,0,0,0,0-4.75h-8.71a2.38,2.38,0,0,0,0,4.75Z"/><path className="cls-1" d="M447.91,126.88h8.71a2.38,2.38,0,0,0,0-4.75h-8.71a2.38,2.38,0,0,0,0,4.75Z"/><path className="cls-1" d="M417,126.88h19.8a2.38,2.38,0,0,0,0-4.75H417a2.38,2.38,0,0,0,0,4.75Z"/><path className="cls-1" d="M394.23,154.75H330.1a11.42,11.42,0,0,0-11.42,11.42v37a11.41,11.41,0,0,0,10.58,11.38L316,236.2l34.85-21.63h43.34a11.42,11.42,0,0,0,11.42-11.42v-37A11.42,11.42,0,0,0,394.23,154.75Z"/><circle className="cls-14" cx="362.17" cy="175.69" r="7.59"/><path className="cls-14" d="M380.11,201.23H344.22a11.5,11.5,0,0,1,11.5-11.5h12.89a11.5,11.5,0,0,1,11.5,11.5Z"/><path className="cls-9" d="M316.82,94.6A31.41,31.41,0,0,1,310.5,94a1.57,1.57,0,0,1-1.22-1.85,1.59,1.59,0,0,1,1.85-1.22,28.36,28.36,0,0,0,9.84.27,1.57,1.57,0,1,1,.46,3.1A31.57,31.57,0,0,1,316.82,94.6ZM331,90.94a1.57,1.57,0,0,1-.76-2.94,27.83,27.83,0,0,0,7.64-6.21,1.57,1.57,0,0,1,2.37,2,31,31,0,0,1-8.49,6.91A1.58,1.58,0,0,1,331,90.94Zm-29.88-.84a1.55,1.55,0,0,1-.83-.24,31.06,31.06,0,0,1-8.09-7.37,1.57,1.57,0,0,1,2.48-1.91A28,28,0,0,0,302,87.21a1.57,1.57,0,0,1-.84,2.89Zm43.22-14.67a1.58,1.58,0,0,1-.55-.1,1.57,1.57,0,0,1-.92-2,27.73,27.73,0,0,0,1.73-9.68,1.57,1.57,0,1,1,3.13,0,30.86,30.86,0,0,1-1.93,10.78A1.57,1.57,0,0,1,344.39,75.43Zm-55.68-1.56a1.57,1.57,0,0,1-1.5-1.11,31.06,31.06,0,0,1-1.37-9.13c0-.58,0-1.16,0-1.73a1.6,1.6,0,0,1,1.65-1.47A1.57,1.57,0,0,1,289,62.08c0,.51,0,1,0,1.55a28,28,0,0,0,1.23,8.21,1.57,1.57,0,0,1-1,2A1.53,1.53,0,0,1,288.72,73.88Zm56.64-15.77a1.57,1.57,0,0,1-1.52-1.19,27.61,27.61,0,0,0-4-9,1.57,1.57,0,0,1,2.59-1.77,30.69,30.69,0,0,1,4.48,10,1.56,1.56,0,0,1-1.14,1.9A1.51,1.51,0,0,1,345.36,58.11Zm-55.5-4.66a1.57,1.57,0,0,1-1.44-2.2,30.78,30.78,0,0,1,6.09-9.1,1.57,1.57,0,1,1,2.26,2.17,27.71,27.71,0,0,0-5.47,8.18A1.57,1.57,0,0,1,289.86,53.45Zm44-12.24a1.55,1.55,0,0,1-.91-.29,27.59,27.59,0,0,0-8.9-4.18,1.57,1.57,0,0,1,.81-3,30.72,30.72,0,0,1,9.91,4.66,1.57,1.57,0,0,1-.91,2.84Zm-29.77-2.5a1.57,1.57,0,0,1-.68-3,30.75,30.75,0,0,1,10.55-2.93,1.59,1.59,0,0,1,1.71,1.42,1.57,1.57,0,0,1-1.42,1.71,27.68,27.68,0,0,0-9.48,2.63A1.55,1.55,0,0,1,304.05,38.71Z"/><path className="cls-9" d="M316.82,48.75c-11.35,0-20.55,6.08-20.55,13.58v0c0,2,1.55,3.3,3,2.68l5.39-2.3a3.24,3.24,0,0,0,1.34-4l-.66-1.81a81.38,81.38,0,0,0,22.87,0l-.67,2.32a3.27,3.27,0,0,0,1.25,3.72l5.33,2.91c1.3.71,2.81-.24,3.11-2a9.11,9.11,0,0,0,.13-1.52C337.37,54.83,328.17,48.75,316.82,48.75Z"/><path className="cls-1" d="M331.05,78.52H302.57l4.22-13.22a6,6,0,0,1,5.7-4.16h8.65a6,6,0,0,1,5.7,4.16Z"/><path className="cls-9" d="M500.36,255.65A31.21,31.21,0,0,1,494,255a1.57,1.57,0,0,1-1.22-1.85,1.59,1.59,0,0,1,1.85-1.22,28.16,28.16,0,0,0,9.84.27,1.57,1.57,0,1,1,.46,3.1A31.75,31.75,0,0,1,500.36,255.65ZM514.59,252a1.57,1.57,0,0,1-.76-2.94,28,28,0,0,0,7.64-6.21,1.57,1.57,0,1,1,2.37,2,31,31,0,0,1-8.49,6.91A1.55,1.55,0,0,1,514.59,252Zm-29.87-.84a1.55,1.55,0,0,1-.83-.24,31.1,31.1,0,0,1-8.09-7.37,1.57,1.57,0,0,1,2.48-1.91,27.92,27.92,0,0,0,7.27,6.63,1.57,1.57,0,0,1-.84,2.89Zm43.22-14.66a1.59,1.59,0,0,1-.55-.1,1.57,1.57,0,0,1-.92-2,27.73,27.73,0,0,0,1.73-9.68,1.57,1.57,0,0,1,3.13,0,30.86,30.86,0,0,1-1.93,10.78A1.57,1.57,0,0,1,527.93,236.48Zm-55.68-1.56a1.57,1.57,0,0,1-1.5-1.11,31,31,0,0,1-1.37-9.13q0-.87,0-1.73a1.64,1.64,0,0,1,1.65-1.48,1.57,1.57,0,0,1,1.48,1.65c0,.52,0,1,0,1.56a27.81,27.81,0,0,0,1.23,8.21,1.57,1.57,0,0,1-1,2A1.53,1.53,0,0,1,472.26,234.92Zm56.65-15.76a1.57,1.57,0,0,1-1.52-1.19,27.68,27.68,0,0,0-4-9,1.57,1.57,0,1,1,2.59-1.77,30.68,30.68,0,0,1,4.48,10,1.57,1.57,0,0,1-1.14,1.9A1.5,1.5,0,0,1,528.91,219.16Zm-55.5-4.67a1.57,1.57,0,0,1-1.44-2.2,30.9,30.9,0,0,1,6.09-9.1,1.57,1.57,0,0,1,2.26,2.17,27.79,27.79,0,0,0-5.47,8.18A1.57,1.57,0,0,1,473.4,214.49Zm44-12.23a1.55,1.55,0,0,1-.91-.29,27.53,27.53,0,0,0-8.9-4.19,1.57,1.57,0,0,1,.81-3,30.78,30.78,0,0,1,9.91,4.66,1.57,1.57,0,0,1-.91,2.84Zm-29.77-2.51a1.57,1.57,0,0,1-.68-3,30.73,30.73,0,0,1,10.55-2.93,1.57,1.57,0,1,1,.29,3.12,27.59,27.59,0,0,0-9.48,2.63A1.55,1.55,0,0,1,487.6,199.75Z"/><rect className="cls-1" x="481.89" y="219.1" width="36.45" height="20.67"/><path className="cls-9" d="M513.34,217.47v-2.53a3.37,3.37,0,0,1,3.37-3.37h0a3.37,3.37,0,0,1,3.37,3.37v4.19h-6.74"/><path className="cls-10" d="M513.41,214.89v21.48H488.56V214.89a3.37,3.37,0,0,1,3.37-3.37H516.5l-.68.14A3.37,3.37,0,0,0,513.41,214.89Z"/><rect className="cls-9" x="490.1" y="215.01" width="5.51" height="5.66"/><line className="cls-15" x1="497.3" y1="214.98" x2="511.31" y2="214.98"/><line className="cls-15" x1="497.3" y1="216.89" x2="511.31" y2="216.89"/><line className="cls-15" x1="497.3" y1="218.79" x2="511.31" y2="218.79"/><line className="cls-15" x1="497.43" y1="220.7" x2="511.44" y2="220.7"/><line className="cls-15" x1="490.1" y1="222.58" x2="511.31" y2="222.58"/><line className="cls-15" x1="490.1" y1="224.48" x2="511.31" y2="224.48"/><line className="cls-15" x1="490.1" y1="226.34" x2="511.31" y2="226.34"/><line className="cls-15" x1="490.1" y1="228.25" x2="500.41" y2="228.25"/><polygon className="cls-9" points="509.39 239.77 481.89 239.77 481.89 219.1 509.39 239.77"/><polygon className="cls-9" points="490.85 239.77 518.34 239.77 518.34 219.1 490.85 239.77"/><path className="cls-9" d="M518.34,239.77H481.89L498.26,231a3.25,3.25,0,0,1,3.71,0Z"/></g></g></svg>