<?xml version="1.0" standalone="no"?>
<!DOCTYPE svg PUBLIC "-//W3C//DTD SVG 20010904//EN"
 "http://www.w3.org/TR/2001/REC-SVG-20010904/DTD/svg10.dtd">
<svg version="1.0" xmlns="http://www.w3.org/2000/svg"
 width="201.000000pt" height="201.000000pt" viewBox="0 0 201.000000 201.000000"
 preserveAspectRatio="xMidYMid meet">
<metadata>
Created by potrace 1.11, written by Peter Selinger 2001-2013
</metadata>
<g transform="translate(0.000000,201.000000) scale(0.100000,-0.100000)"
fill="#000000" stroke="none">
<path d="M908 2005 c-1 -1 -23 -5 -48 -8 -209 -25 -422 -134 -577 -295 -118
-122 -226 -314 -249 -442 -3 -14 -10 -43 -16 -65 -16 -59 -18 -259 -3 -350 61
-378 340 -693 708 -799 637 -185 1275 291 1278 953 1 115 -3 145 -33 266 -89
361 -408 657 -781 726 -57 10 -271 21 -279 14z"/>
</g>
</svg>
